<?xml version="1.0" standalone="no"?>
<!DOCTYPE svg PUBLIC "-//W3C//DTD SVG 20010904//EN"
 "http://www.w3.org/TR/2001/REC-SVG-20010904/DTD/svg10.dtd">
<svg version="1.0" xmlns="http://www.w3.org/2000/svg"
 width="600.000000pt" height="600.000000pt" viewBox="0 0 600.000000 600.000000"
 preserveAspectRatio="xMidYMid meet">
<metadata>
Created by potrace 1.14, written by Peter Selinger 2001-2017
</metadata>
<g transform="translate(0.000000,600.000000) scale(0.100000,-0.100000)"
fill="#000000" stroke="none">
<path d="M0 3000 l0 -3000 3000 0 3000 0 0 3000 0 3000 -3000 0 -3000 0 0
-3000z m1876 1081 c23 -10 54 -35 69 -55 25 -33 38 -93 171 -804 79 -422 147
-789 150 -817 8 -61 28 -97 64 -119 55 -32 144 -13 172 37 9 15 15 85 18 213
5 186 6 191 32 231 47 71 145 102 221 69 38 -16 82 -61 96 -97 16 -43 24 -315
12 -404 -46 -337 -395 -528 -700 -383 -127 60 -236 201 -261 338 -212 1129
-300 1628 -295 1661 19 114 144 178 251 130z m1236 -42 c182 -38 339 -195 377
-378 12 -56 15 -849 4 -837 -3 3 -12 -2 -20 -10 -8 -8 -19 -12 -24 -9 -5 4 -9
1 -9 -4 0 -6 -6 -11 -14 -11 -8 0 -16 -3 -19 -7 -2 -5 -3 -3 -1 4 2 8 -6 9
-27 3 -16 -5 -29 -6 -29 -3 0 3 -8 -1 -18 -10 -10 -10 -22 -14 -27 -10 -4 5
-5 0 -1 -11 5 -14 2 -17 -9 -12 -10 4 -15 -1 -15 -14 0 -11 -7 -20 -16 -20 -9
0 -12 -5 -8 -12 4 -7 3 -8 -4 -4 -17 10 -15 24 6 29 9 3 4 4 -11 3 -16 -1 -32
-8 -37 -15 -4 -8 -13 -10 -20 -6 -8 5 -11 4 -6 -3 3 -5 0 -12 -6 -15 -7 -2
-10 -7 -7 -11 3 -3 18 5 32 18 19 18 27 21 27 11 0 -8 -5 -15 -11 -15 -5 0 -7
-5 -3 -12 4 -7 3 -8 -5 -4 -6 4 -18 2 -26 -4 -8 -7 -15 -9 -15 -4 0 5 -4 3 -9
-5 -7 -10 -9 -8 -9 10 0 13 -4 229 -8 479 -6 428 -8 457 -26 483 -40 57 -116
73 -175 37 -56 -34 -63 -61 -63 -235 0 -170 -7 -201 -56 -247 -61 -57 -144
-64 -215 -19 -77 48 -84 74 -84 301 0 181 2 199 24 255 95 240 319 365 563
314z m1185 -10 c57 -28 95 -90 94 -157 0 -26 -21 -155 -46 -287 -66 -349 -65
-346 -77 -338 -8 4 -9 0 -5 -11 5 -14 3 -17 -8 -12 -10 3 -15 -1 -15 -13 0
-21 -23 -44 -33 -34 -13 12 -7 25 8 19 8 -3 15 -1 15 5 0 14 -50 5 -60 -10 -4
-8 -13 -10 -20 -6 -8 5 -11 4 -6 -3 3 -5 0 -12 -6 -15 -7 -2 -10 -7 -7 -11 3
-3 18 5 32 18 19 18 27 21 27 11 0 -8 -5 -15 -11 -15 -5 0 -7 -5 -3 -12 4 -7
3 -8 -5 -4 -6 4 -18 2 -26 -4 -8 -7 -15 -9 -15 -6 0 4 -7 0 -16 -8 -8 -9 -20
-14 -25 -11 -5 4 -9 1 -9 -4 0 -6 -6 -11 -14 -11 -8 0 -16 -3 -19 -7 -2 -5 -3
-3 -1 4 2 8 -6 9 -27 3 -16 -5 -29 -6 -29 -3 0 3 -8 -1 -18 -10 -10 -10 -22
-14 -27 -10 -4 5 -5 0 -1 -11 5 -14 2 -17 -9 -12 -10 3 -15 -1 -15 -13 0 -21
-23 -44 -33 -34 -12 12 -7 23 11 23 14 0 15 2 2 10 -13 9 -13 10 0 10 12 0 12
2 2 9 -10 6 2 91 63 417 41 225 82 427 90 450 37 100 144 141 242 93z m-280
-936 c-9 -2 -15 -8 -12 -13 3 -4 -5 -6 -17 -2 -14 3 -19 2 -14 -6 4 -7 2 -12
-4 -12 -6 0 -9 -4 -6 -8 2 -4 -3 -8 -13 -9 -15 -1 -15 2 6 26 14 16 35 27 51
28 15 0 19 -1 9 -4z m-640 -320 c-9 -2 -15 -8 -12 -13 3 -4 -5 -6 -17 -2 -14
3 -19 2 -14 -6 4 -7 2 -12 -4 -12 -6 0 -9 -4 -6 -8 2 -4 -3 -8 -13 -9 -15 -1
-15 2 6 26 14 16 35 27 51 28 15 0 19 -1 9 -4z"/>
<path d="M3435 2836 c-5 -6 -11 -18 -13 -26 -1 -10 3 -8 13 4 8 11 15 14 15 7
0 -9 4 -8 15 3 19 19 20 32 1 17 -8 -7 -16 -8 -18 -2 -1 5 -7 4 -13 -3z"/>
<path d="M3390 2815 c-11 -13 -10 -14 4 -9 9 3 16 10 16 15 0 13 -6 11 -20 -6z"/>
<path d="M4075 3156 c-5 -6 -11 -18 -13 -26 -1 -10 3 -8 13 4 8 11 15 14 15 7
0 -9 4 -8 15 3 19 19 20 32 1 17 -8 -7 -16 -8 -18 -2 -1 5 -7 4 -13 -3z"/>
<path d="M4030 3135 c-11 -13 -10 -14 4 -9 9 3 16 10 16 15 0 13 -6 11 -20 -6z"/>
</g>
</svg>
